<?xml version="1.0" encoding="UTF-8"?>
<!DOCTYPE svg PUBLIC "-//W3C//DTD SVG 1.1//EN" "http://www.w3.org/Graphics/SVG/1.1/DTD/svg11.dtd">
<svg version="1.1" xmlns="http://www.w3.org/2000/svg" xmlns:xlink="http://www.w3.org/1999/xlink" x="0" y="0" width="568.027" height="316.333" viewBox="0, 0, 568.027, 316.333">
  <g id="Layer_1">
    <g>
      <path d="M-0,-0 L568.027,-0 L568.027,316.333 L-0,316.333 L-0,-0 z" fill="#FFFFFF"/>
      <path d="M224.671,38.549 L221.688,268.667" fill-opacity="0" stroke="#000000" stroke-width="3"/>
      <path d="M306.386,106.648 L306.386,123.648 L323.386,115.265 L306.386,106.648" fill="#000000"/>
      <path d="M364.386,106.648 L364.386,123.648 L347.386,115.265 L364.386,106.648" fill="#000000"/>
      <g>
        <path d="M379.18,268.479 C379.18,264.797 382.165,261.813 385.847,261.813 C389.529,261.813 392.513,264.797 392.513,268.479 C392.513,272.161 389.529,275.146 385.847,275.146 C382.165,275.146 379.18,272.161 379.18,268.479 z" fill="#FFFFFF"/>
        <path d="M379.18,268.479 C379.18,264.797 382.165,261.813 385.847,261.813 C389.529,261.813 392.513,264.797 392.513,268.479 C392.513,272.161 389.529,275.146 385.847,275.146 C382.165,275.146 379.18,272.161 379.18,268.479 z" fill-opacity="0" stroke="#000000" stroke-width="3"/>
      </g>
      <g>
        <path d="M329.219,268.479 C329.219,264.797 332.204,261.813 335.886,261.813 C339.568,261.813 342.552,264.797 342.552,268.479 C342.552,272.161 339.568,275.146 335.886,275.146 C332.204,275.146 329.219,272.161 329.219,268.479 z" fill="#FFFFFF"/>
        <path d="M329.219,268.479 C329.219,264.797 332.204,261.813 335.886,261.813 C339.568,261.813 342.552,264.797 342.552,268.479 C342.552,272.161 339.568,275.146 335.886,275.146 C332.204,275.146 329.219,272.161 329.219,268.479 z" fill-opacity="0" stroke="#000000" stroke-width="3"/>
      </g>
      <g>
        <path d="M218.794,31.883 C218.794,28.201 221.779,25.216 225.461,25.216 C229.143,25.216 232.127,28.201 232.127,31.883 C232.127,35.565 229.143,38.549 225.461,38.549 C221.779,38.549 218.794,35.565 218.794,31.883 z" fill="#FFFFFF"/>
        <path d="M218.794,31.883 C218.794,28.201 221.779,25.216 225.461,25.216 C229.143,25.216 232.127,28.201 232.127,31.883 C232.127,35.565 229.143,38.549 225.461,38.549 C221.779,38.549 218.794,35.565 218.794,31.883 z" fill-opacity="0" stroke="#000000" stroke-width="3"/>
      </g>
      <g>
        <path d="M329.219,161.813 C329.219,158.131 332.204,155.146 335.886,155.146 C339.568,155.146 342.552,158.131 342.552,161.813 C342.552,165.494 339.568,168.479 335.886,168.479 C332.204,168.479 329.219,165.494 329.219,161.813 z" fill="#FFFFFF"/>
        <path d="M329.219,161.813 C329.219,158.131 332.204,155.146 335.886,155.146 C339.568,155.146 342.552,158.131 342.552,161.813 C342.552,165.494 339.568,168.479 335.886,168.479 C332.204,168.479 329.219,165.494 329.219,161.813 z" fill-opacity="0" stroke="#000000" stroke-width="3"/>
      </g>
      <g>
        <path d="M277.847,268.479 C277.847,264.797 280.831,261.813 284.513,261.813 C288.195,261.813 291.18,264.797 291.18,268.479 C291.18,272.161 288.195,275.146 284.513,275.146 C280.831,275.146 277.847,272.161 277.847,268.479 z" fill="#FFFFFF"/>
        <path d="M277.847,268.479 C277.847,264.797 280.831,261.813 284.513,261.813 C288.195,261.813 291.18,264.797 291.18,268.479 C291.18,272.161 288.195,275.146 284.513,275.146 C280.831,275.146 277.847,272.161 277.847,268.479 z" fill-opacity="0" stroke="#000000" stroke-width="3"/>
      </g>
      <g>
        <path d="M216.513,275.333 C216.513,271.651 219.498,268.667 223.179,268.667 C226.861,268.667 229.846,271.651 229.846,275.333 C229.846,279.015 226.861,282 223.179,282 C219.498,282 216.513,279.015 216.513,275.333 z" fill="#FFFFFF"/>
        <path d="M216.513,275.333 C216.513,271.651 219.498,268.667 223.179,268.667 C226.861,268.667 229.846,271.651 229.846,275.333 C229.846,279.015 226.861,282 223.179,282 C219.498,282 216.513,279.015 216.513,275.333 z" fill-opacity="0" stroke="#000000" stroke-width="3"/>
      </g>
      <path d="M385.847,261.813 L385.847,115.146" fill-opacity="0" stroke="#000000" stroke-width="3"/>
      <path d="M335.886,261.813 L335.886,168.479" fill-opacity="0" stroke="#000000" stroke-width="3"/>
      <path d="M335.886,155.146 L323.886,111.813" fill-opacity="0" stroke="#000000" stroke-width="3"/>
      <path d="M385.847,115.146 L361.886,115.146" fill-opacity="0" stroke="#000000" stroke-width="3"/>
      <path d="M309.886,115.146 L284.513,115.146" fill-opacity="0" stroke="#000000" stroke-width="3"/>
      <path d="M284.513,115.146 L284.513,261.813" fill-opacity="0" stroke="#000000" stroke-width="3"/>
      <g>
        <path d="M218.294,98.305 L228.635,98.305 L228.635,217.257 L218.294,217.257 L218.294,98.305 z" fill="#FFFFFF"/>
        <g>
          <path d="M223.294,196.864 C250.904,184.247 249.97,231.387 223.442,218.415" fill-opacity="0" stroke="#000000" stroke-width="2" stroke-miterlimit="3"/>
          <path d="M223.294,176.757 C250.904,164.139 249.97,211.279 223.442,198.308" fill-opacity="0" stroke="#000000" stroke-width="2"/>
          <path d="M223.294,156.975 C250.904,144.358 249.97,191.498 223.442,178.526" fill-opacity="0" stroke="#000000" stroke-width="2"/>
          <path d="M223.294,138.056 C250.904,125.439 249.97,172.579 223.442,159.607" fill-opacity="0" stroke="#000000" stroke-width="2"/>
          <path d="M223.294,118.827 C250.904,106.209 249.97,153.349 223.442,140.378" fill-opacity="0" stroke="#000000" stroke-width="2"/>
          <path d="M223.294,98.805 C250.904,86.187 249.97,133.327 223.442,120.356" fill-opacity="0" stroke="#000000" stroke-width="2" stroke-miterlimit="2"/>
        </g>
      </g>
      <g>
        <path d="M247.671,99.9 L254.004,99.9 L254.004,219.567 L247.671,219.567 L247.671,99.9 z" fill="#FFFFFF"/>
        <path d="M248.363,97.266 L248.363,218.808" fill-opacity="0" stroke="#000000" stroke-width="2"/>
        <path d="M254.363,97.266 L254.363,218.808" fill-opacity="0" stroke="#000000" stroke-width="2"/>
        <path d="M259.863,97.266 L259.863,218.808" fill-opacity="0" stroke="#000000" stroke-width="2"/>
      </g>
    </g>
  </g>
</svg>
